<?xml version="1.0" encoding="utf-8"?>
<!-- Generator: Adobe Illustrator 19.0.0, SVG Export Plug-In . SVG Version: 6.00 Build 0)  -->
<!DOCTYPE svg PUBLIC "-//W3C//DTD SVG 1.1//EN" "http://www.w3.org/Graphics/SVG/1.1/DTD/svg11.dtd">
<svg version="1.1" id="Layer_1" xmlns="http://www.w3.org/2000/svg" xmlns:xlink="http://www.w3.org/1999/xlink" x="0px" y="0px"
	 viewBox="0 0 1152 1152" style="enable-background:new 0 0 1152 1152;" xml:space="preserve">
<style type="text/css">
	.st0{fill:#14FF3D;fill-opacity:0.52;}
	.st1{fill:#14FF3D;fill-opacity:0.52;stroke:#FFFFFF;stroke-miterlimit:10;}
	.st2{fill:#231F20;}
	.st3{fill:#EEFFBB;stroke:#FFFFFF;stroke-miterlimit:10;}
</style>
<path id="XMLID_81_" class="st0" d="M114.3,306.5v44.3H96.1c-19.8,0-35.9,16.1-35.9,35.9v199.2c0,19.9,16.1,36,36,36h954
	c19.9,0,36-16.1,36-36V306.5H114.3z M192.2,337.7c-5,0-9-4-9-9c0-5,4-9,9-9c5,0,9,4,9,9C201.2,333.6,197.2,337.7,192.2,337.7z
	 M467.1,337.7c-5,0-9-4-9-9c0-5,4-9,9-9s9,4,9,9C476.1,333.6,472.1,337.7,467.1,337.7z M742,337.7c-5,0-9-4-9-9c0-5,4-9,9-9s9,4,9,9
	C751,333.6,747,337.7,742,337.7z M1016.9,337.7c-5,0-9-4-9-9c0-5,4-9,9-9c5,0,9,4,9,9C1025.9,333.6,1021.9,337.7,1016.9,337.7z"/>
<path id="XMLID_83_" class="st1" d="M114.3-707.6v44.3H96.1c-19.8,0-35.9,16.1-35.9,35.9v199.2c0,19.9,16.1,36,36,36h954
	c19.9,0,36-16.1,36-36v-279.4H114.3z"/>
<rect id="XMLID_79_" x="114.3" y="-707.6" class="st2" width="972" height="44.3"/>
<g id="XMLID_73_">
	<circle id="XMLID_78_" class="st3" cx="192.2" cy="-685.4" r="9"/>
	<circle id="XMLID_77_" class="st3" cx="467.1" cy="-685.4" r="9"/>
	<circle id="XMLID_76_" class="st3" cx="742" cy="-685.4" r="9"/>
	<circle id="XMLID_74_" class="st3" cx="1016.9" cy="-685.4" r="9"/>
</g>
</svg>
